<svg xmlns="http://www.w3.org/2000/svg" id="Layer_1" data-name="Layer 1" viewBox="0 0 188.02 46.04"><defs><style>.cls-1,.cls-2{fill:#283b45}.cls-2{font-size:15px;font-family:Verdana,Verdana}.cls-3{letter-spacing:-.02em}</style></defs><title>IEEE_PES_LOGO</title><path d="M26.4,6V4.88h6.94V6l-3.2.35h-.57Zm3.74,12.75,3.2.35v1.08H26.4V19.06l3.17-.35ZM28.37,12c0-2.37,0-4.76-.07-7.13h3.12c-.07,2.32-.07,4.72-.07,7.13v1c0,2.38,0,4.77.07,7.14H28.3c.07-2.33.07-4.72.07-7.13Z" class="cls-1"/><path d="M35.12,6V4.88h3.46V6.31h-.29Zm3.46,12.75v1.43H35.12V19.06l3.17-.35ZM37.09,12c0-2.37,0-4.76-.07-7.13h3.12c-.07,2.32-.07,4.72-.07,7.13v.81c0,2.56,0,4.95.07,7.32H37c.07-2.33.07-4.72.07-7.13Zm7.48-7.13,1.35,1.23H38.58V4.88h8.13l.16,4H45.26Zm-.86,8H38.58V11.7h5.13Zm3.62,3.2-.16,4H38.58V18.92h7.8L45,20.14l.69-4ZM43,12l.35-2.31h1.19v5.19H43.34L43,12.46Z" class="cls-1"/><path d="M48.9,6V4.88h3.47V6.31h-.3Zm3.47,12.75v1.43H48.9V19.06l3.17-.35ZM50.88,12c0-2.37,0-4.76-.07-7.13h3.12c-.07,2.32-.07,4.72-.07,7.13v.81c0,2.56,0,4.95.07,7.32H50.81c.07-2.33.07-4.72.07-7.13Zm7.47-7.13L59.7,6.11H52.37V4.88h8.12l.16,4H59Zm-.85,8H52.37V11.7H57.5Zm3.61,3.2-.16,4H52.37V18.92h7.79l-1.35,1.22.69-4ZM56.78,12l.34-2.31h1.19v5.19H57.12l-.34-2.43Z" class="cls-1"/><path d="M62.68,6V4.88h3.47V6.31h-.3Zm3.47,12.75v1.43H62.68V19.06l3.17-.35ZM64.66,12c0-2.37,0-4.76-.07-7.13h3.12c-.07,2.32-.07,4.72-.07,7.13v.81c0,2.56,0,4.95.07,7.32H64.59c.07-2.33.07-4.72.07-7.13Zm7.47-7.13,1.36,1.23H66.15V4.88h8.12l.16,4h-1.6Zm-.85,8H66.15V11.7h5.13Zm3.61,3.2-.16,4H66.15V18.92H74l-1.36,1.22.7-4ZM70.56,12,70.9,9.7h1.19v5.19H70.9l-.34-2.43Z" class="cls-1"/><path d="M81.61,6V4.88h3.47V6.31h-.3Zm3.93,12.75,3.17.35v1.08h-7.1V19.06l3.17-.35Zm-2-6.7c0-2.37,0-4.76-.07-7.13h3.12c-.07,2.32-.07,4.72-.07,7.13v1.4c0,2.11,0,4.36.07,6.73H83.52c.07-2.33.07-4.72.07-7.13ZM87.5,14.2H85.08V13h2.61c2.42,0,3.48-1.46,3.48-3.6S90,6.07,87.6,6.07H85.08V4.88h2.75c4.32,0,6.25,1.84,6.25,4.56S92.35,14.2,87.5,14.2Z" class="cls-1"/><path d="M95.19,6V4.88h3.47V6.31h-.3Zm3.47,12.75v1.43H95.19V19.06l3.17-.35ZM97.17,12c0-2.37,0-4.76-.07-7.13h3.12c-.07,2.32-.07,4.72-.07,7.13v.81c0,2.56,0,4.95.07,7.32H97.1c.07-2.33.07-4.72.07-7.13Zm7.47-7.13L106,6.11H98.66V4.88h8.12l.16,4h-1.61Zm-.85,8H98.66V11.7h5.13Zm3.61,3.2-.16,4H98.66V18.92h7.79l-1.35,1.22.69-4ZM103.07,12l.34-2.31h1.19v5.19h-1.19l-.34-2.43Z" class="cls-1"/><path d="M116.69,16.77c0-1.35-.74-2-2.43-2.66l-.93-.39c-2.53-1.08-4.11-2.43-4.11-4.88,0-2.7,2.23-4.35,5.44-4.35a7.06,7.06,0,0,1,4,1.2l-.16,3.1h-1.76l-.6-3.47,1.67.71V7.18a4.72,4.72,0,0,0-3.24-1.43c-1.55,0-2.75.87-2.75,2.35s.83,2.08,2.35,2.7l1,.42c3,1.25,4.17,2.55,4.17,4.8,0,2.71-2.17,4.5-5.72,4.5a9.37,9.37,0,0,1-4.73-1.21l.14-3.32h1.76l.6,3.64L109.79,19v-1.1a6.38,6.38,0,0,0,3.83,1.34C115.53,19.26,116.69,18.29,116.69,16.77Z" class="cls-1"/><path d="M128.06,6.31,124.89,6V4.88h6.83V6l-3,.32ZM126,4.88h3.19l4.23,12.34-.57.25,4.25-12.59h1.37l-5.27,15.36H131.6Zm11.09,1.43L134.71,6V4.88h5.14V6l-2.37.35Z" class="cls-1"/><path d="M140.89,6V4.88h6.93V6l-3.2.35h-.57Zm3.73,12.75,3.2.35v1.08h-6.93V19.06l3.16-.35ZM142.86,12c0-2.37,0-4.76-.07-7.13h3.12c-.07,2.32-.07,4.72-.07,7.13v1c0,2.38,0,4.77.07,7.14h-3.12c.07-2.33.07-4.72.07-7.13Z" class="cls-1"/><path d="M150.1,6.11l1.35-1.23-.66,4.19h-1.61l.13-4.19h13l.12,4.19h-1.6l-.67-4.19,1.35,1.23Zm6.08,12.6,3.35.35v1.08h-7.4V19.06l3.31-.35ZM154.33,12c0-2.37,0-4.76-.06-7.13h3.11c-.06,2.32-.06,4.72-.06,7.13v1c0,2.38,0,4.77.06,7.14h-3.11c.06-2.33.06-4.72.06-7.13Z" class="cls-1"/><text class="cls-2" transform="translate(12.04 39.34)">More <tspan x="42.36" y="0" class="cls-3">P</tspan><tspan x="51.04" y="0">ower to future!</tspan></text></svg>